<?xml version="1.0" standalone="no"?>
<!DOCTYPE svg PUBLIC "-//W3C//DTD SVG 20010904//EN"
 "http://www.w3.org/TR/2001/REC-SVG-20010904/DTD/svg10.dtd">
<svg version="1.0" xmlns="http://www.w3.org/2000/svg"
 width="512.000000pt" height="512.000000pt" viewBox="0 0 512.000000 512.000000"
 preserveAspectRatio="xMidYMid meet">

<g transform="translate(0.000000,512.000000) scale(0.100000,-0.100000)"
fill="#000000" stroke="none">
<path d="M1849 4654 c-192 -34 -385 -135 -529 -275 -402 -390 -416 -1039 -32
-1441 217 -227 503 -342 807 -325 448 26 825 336 942 773 23 87 26 118 26 254
0 135 -3 168 -26 252 -124 467 -530 781 -1004 777 -59 0 -142 -7 -184 -15z"/>
<path d="M3607 3200 c-208 -53 -314 -291 -212 -479 15 -27 91 -112 180 -201
l154 -154 -157 -161 c-165 -167 -194 -208 -211 -302 -29 -150 62 -309 208
-364 44 -17 71 -20 131 -17 121 7 152 26 337 210 l163 162 167 -166 c149 -146
175 -168 228 -187 82 -31 189 -26 268 13 161 78 226 277 146 444 -15 30 -79
104 -181 207 l-157 161 154 154 c85 85 165 174 178 199 91 168 21 379 -151
459 -47 22 -72 26 -137 26 -126 0 -163 -22 -355 -210 l-160 -157 -159 156
c-121 120 -171 163 -214 182 -62 29 -160 40 -220 25z"/>
<path d="M841 2395 c-166 -47 -309 -162 -381 -310 -35 -70 -375 -1128 -384
-1196 -10 -66 17 -181 56 -247 42 -69 96 -116 178 -156 l65 -31 1665 0 1665 0
67 33 c84 41 167 128 199 209 18 46 23 77 23 148 -1 83 -6 106 -66 290 l-64
200 -30 -3 c-214 -19 -281 -12 -385 40 -151 76 -267 236 -291 404 -24 167 31
318 166 461 43 46 77 85 75 87 -2 2 -27 15 -55 29 -89 45 -167 59 -289 54
-100 -4 -124 -9 -260 -55 -278 -95 -508 -128 -828 -119 -284 7 -497 46 -732
133 -91 34 -111 37 -220 40 -86 3 -135 0 -174 -11z"/>
</g>
</svg>
