<?xml version="1.0" standalone="no"?>
<!DOCTYPE svg PUBLIC "-//W3C//DTD SVG 20010904//EN"
 "http://www.w3.org/TR/2001/REC-SVG-20010904/DTD/svg10.dtd">
<svg version="1.0" xmlns="http://www.w3.org/2000/svg"
 width="512.000000pt" height="512.000000pt" viewBox="0 0 512.000000 512.000000"
 preserveAspectRatio="xMidYMid meet">

<g transform="translate(0.000000,512.000000) scale(0.100000,-0.100000)"
fill="#000000" stroke="none">
<path d="M2388 4109 c-915 -55 -1751 -545 -2250 -1320 -30 -46 -73 -117 -97
-157 l-42 -73 77 -127 c302 -500 688 -862 1189 -1117 525 -266 1128 -365 1714
-280 678 99 1337 466 1775 989 116 139 192 246 291 409 l77 127 -77 128 c-99
162 -175 269 -291 408 -438 523 -1097 890 -1775 988 -94 14 -410 38 -449 34
-8 0 -72 -4 -142 -9z m372 -579 c361 -74 627 -332 717 -695 25 -104 22 -315
-5 -418 -111 -412 -467 -689 -882 -689 -246 0 -455 82 -627 246 -170 161 -266
361 -288 601 -7 78 8 221 32 305 130 460 590 744 1053 650z m-1410 -275 c-150
-298 -187 -633 -105 -955 53 -205 150 -397 280 -549 25 -29 45 -55 45 -58 0
-10 -237 120 -330 181 -219 144 -452 362 -608 571 -45 61 -82 112 -82 115 0 3
37 55 82 115 99 134 338 376 468 472 89 67 282 194 287 189 2 -1 -15 -38 -37
-81z m2580 -43 c133 -91 237 -181 365 -313 92 -96 275 -321 275 -339 0 -3 -37
-54 -82 -115 -148 -198 -377 -416 -580 -553 -77 -52 -249 -152 -261 -152 -4 0
16 31 46 70 292 383 358 924 167 1362 -23 51 -44 99 -47 107 -8 18 -4 15 117
-67z"/>
<path d="M2480 3029 c-110 -22 -217 -108 -268 -217 -24 -50 -27 -69 -27 -157
0 -89 3 -107 29 -163 37 -80 122 -161 203 -193 81 -32 205 -32 286 0 81 32
166 113 203 193 26 56 29 74 29 163 0 88 -3 107 -27 157 -53 113 -158 195
-277 218 -61 11 -88 11 -151 -1z"/>
</g>
</svg>
