<?xml version="1.0" standalone="no"?>
<!DOCTYPE svg PUBLIC "-//W3C//DTD SVG 20010904//EN"
 "http://www.w3.org/TR/2001/REC-SVG-20010904/DTD/svg10.dtd">
<svg version="1.0" xmlns="http://www.w3.org/2000/svg"
 width="512.000000pt" height="512.000000pt" viewBox="0 0 512.000000 512.000000"
 preserveAspectRatio="xMidYMid meet">

<g transform="translate(0.000000,512.000000) scale(0.100000,-0.100000)"
fill="#000000" stroke="none">
<path d="M1040 4921 c-19 -10 -48 -35 -65 -55 l-30 -38 -3 -524 -3 -524 -292
0 c-327 0 -370 -6 -460 -63 -68 -44 -113 -96 -151 -177 l-31 -65 -3 -914 c-2
-599 1 -932 8 -969 26 -141 126 -254 268 -303 49 -17 87 -19 358 -19 l303 0 3
-489 3 -489 30 -38 c17 -20 46 -45 65 -55 33 -18 92 -19 1520 -19 1428 0 1487
1 1520 19 19 10 48 35 65 55 l30 38 3 489 3 489 303 0 c271 0 309 2 358 19
142 49 242 162 268 303 7 37 10 370 8 969 l-3 914 -31 65 c-38 81 -83 133
-151 177 -90 57 -133 63 -460 63 l-292 0 -3 524 -3 524 -30 38 c-17 20 -46 45
-65 55 -33 18 -92 19 -1520 19 -1428 0 -1487 -1 -1520 -19z m2800 -731 l0
-410 -1280 0 -1280 0 0 410 0 410 1280 0 1280 0 0 -410z m920 -770 c20 -20 20
-33 20 -893 0 -774 -2 -875 -16 -895 -15 -22 -17 -22 -299 -22 l-284 0 -3 269
-3 269 -30 38 c-17 20 -46 45 -65 55 -33 18 -92 19 -1520 19 -1428 0 -1487 -1
-1520 -19 -19 -10 -48 -35 -65 -55 l-30 -38 -3 -269 -3 -269 -284 0 c-282 0
-284 0 -299 22 -14 20 -16 121 -16 895 0 860 0 873 20 893 20 20 33 20 2200
20 2167 0 2180 0 2200 -20z m-920 -2200 l0 -700 -1280 0 -1280 0 0 700 0 700
1280 0 1280 0 0 -700z"/>
<path d="M3502 3103 c-72 -35 -112 -119 -92 -193 13 -49 54 -99 97 -116 41
-17 516 -20 560 -3 40 15 91 67 104 107 17 51 3 117 -34 159 -53 60 -68 63
-349 63 -212 0 -258 -3 -286 -17z"/>
<path d="M1755 1646 c-37 -17 -80 -62 -94 -99 -29 -75 6 -166 79 -204 l43 -23
777 0 777 0 43 23 c75 40 109 133 76 210 -16 39 -61 82 -99 96 -46 18 -1563
14 -1602 -3z"/>
<path d="M1740 1097 c-75 -40 -109 -133 -76 -210 16 -39 61 -82 99 -96 39 -15
1555 -15 1594 0 38 14 83 57 99 96 33 77 -1 170 -76 210 l-43 23 -777 0 -777
0 -43 -23z"/>
</g>
</svg>
