<?xml version="1.0" standalone="no"?>
<!DOCTYPE svg PUBLIC "-//W3C//DTD SVG 20010904//EN"
 "http://www.w3.org/TR/2001/REC-SVG-20010904/DTD/svg10.dtd">
<svg version="1.0" xmlns="http://www.w3.org/2000/svg"
 width="512.000000pt" height="512.000000pt" viewBox="0 0 512.000000 512.000000"
 preserveAspectRatio="xMidYMid meet">

<g transform="translate(0.000000,512.000000) scale(0.100000,-0.100000)"
fill="#000000" stroke="none">
<path d="M1405 4674 c-16 -9 -285 -271 -598 -583 -529 -527 -569 -569 -582
-616 -31 -102 12 -202 106 -249 58 -28 100 -32 163 -14 35 10 98 68 414 382
l372 370 0 -1682 c0 -1845 -4 -1720 58 -1785 48 -51 97 -70 168 -65 78 5 136
41 174 108 l25 45 3 1690 2 1689 373 -371 c370 -369 372 -371 427 -383 161
-35 293 107 250 270 -11 41 -63 97 -573 609 -381 382 -575 569 -602 582 -49
23 -138 24 -180 3z"/>
<path d="M3540 4674 c-46 -20 -77 -50 -103 -99 l-22 -40 -3 -1690 -2 -1689
-373 371 c-370 369 -372 371 -427 383 -161 35 -293 -107 -250 -270 11 -41 63
-96 573 -608 373 -373 576 -569 603 -582 49 -24 133 -26 177 -4 18 9 287 271
600 582 529 528 569 570 582 617 31 102 -12 202 -106 249 -57 28 -101 32 -164
15 -34 -9 -99 -69 -412 -382 l-373 -371 0 1682 c0 1845 4 1720 -58 1785 -61
64 -162 86 -242 51z"/>
</g>
</svg>
