<?xml version="1.0" standalone="no"?>
<!DOCTYPE svg PUBLIC "-//W3C//DTD SVG 20010904//EN"
 "http://www.w3.org/TR/2001/REC-SVG-20010904/DTD/svg10.dtd">
<svg version="1.0" xmlns="http://www.w3.org/2000/svg"
 width="512.000000pt" height="512.000000pt" viewBox="0 0 512.000000 512.000000"
 preserveAspectRatio="xMidYMid meet">

<g transform="translate(0.000000,512.000000) scale(0.100000,-0.100000)"
fill="#000000" stroke="none">
<path d="M893 5105 c-363 -66 -657 -342 -744 -701 -17 -67 -22 -120 -22 -214
0 -139 16 -226 62 -345 67 -173 64 -170 882 -990 l759 -760 0 -950 c0 -934 1
-951 21 -995 37 -83 106 -134 194 -147 93 -12 106 -4 640 395 275 206 513 386
529 401 16 14 39 49 52 76 l24 50 0 585 0 585 759 760 c806 808 808 810 875
973 73 173 91 398 48 576 -89 363 -383 637 -751 701 -117 21 -3215 21 -3328 0z
m3308 -495 c102 -35 173 -88 230 -173 92 -139 103 -310 28 -460 -14 -28 -279
-300 -814 -837 -541 -543 -800 -809 -816 -840 l-24 -45 -3 -582 -3 -581 -231
-174 c-127 -95 -235 -174 -239 -176 -5 -2 -10 335 -11 750 l-3 753 -23 50
c-19 41 -169 196 -816 845 -537 537 -801 809 -815 837 -125 251 -7 542 256
632 57 20 83 20 1641 21 1569 0 1583 0 1643 -20z"/>
</g>
</svg>
